<svg width="24" height="24" viewBox="0 0 24 24" fill="none" xmlns="http://www.w3.org/2000/svg">
<path d="M18.9999 3.66699H4.99992C3.52716 3.66699 2.33325 4.8609 2.33325 6.33366V15.0003C2.33325 16.4731 3.52716 17.667 4.99992 17.667H18.9999C20.4727 17.667 21.6666 16.4731 21.6666 15.0003V6.33366C21.6666 4.8609 20.4727 3.66699 18.9999 3.66699Z" fill="#F5F5F9"/>
<path d="M7.6665 21.667L8.99984 17.667" stroke="#8883AE" stroke-width="1.5" stroke-linecap="round" stroke-linejoin="round"/>
<path d="M16.3333 21.667L15 17.667" stroke="#8883AE" stroke-width="1.5" stroke-linecap="round" stroke-linejoin="round"/>
<path d="M18.9999 3.66699H4.99992C3.52716 3.66699 2.33325 4.8609 2.33325 6.33366V15.0003C2.33325 16.4731 3.52716 17.667 4.99992 17.667H18.9999C20.4727 17.667 21.6666 16.4731 21.6666 15.0003V6.33366C21.6666 4.8609 20.4727 3.66699 18.9999 3.66699Z" stroke="#8883AE" stroke-width="1.5" stroke-linecap="round" stroke-linejoin="round"/>
<path d="M12 3.66667V2" stroke="#8883AE" stroke-width="1.5" stroke-linecap="round" stroke-linejoin="round"/>
</svg>
