<svg width="24" height="24" viewBox="0 0 24 24" fill="none" xmlns="http://www.w3.org/2000/svg">
<path d="M11.9999 9.66634C14.025 9.66634 15.6666 8.02472 15.6666 5.99967C15.6666 3.97463 14.025 2.33301 11.9999 2.33301C9.97487 2.33301 8.33325 3.97463 8.33325 5.99967C8.33325 8.02472 9.97487 9.66634 11.9999 9.66634Z" stroke="#8883AE" stroke-width="1.5" stroke-linecap="round" stroke-linejoin="round"/>
<path d="M18.3493 20.688C19.496 20.3267 20.0986 19.06 19.612 17.9613C18.3186 15.04 15.4 13 12 13C8.59998 13 5.68131 15.04 4.38798 17.9613C3.90131 19.0613 4.50398 20.3267 5.65065 20.688C7.28398 21.2027 9.44531 21.6667 12 21.6667C14.5546 21.6667 16.716 21.2027 18.3493 20.688Z" stroke="#8883AE" stroke-width="1.5" stroke-linecap="round" stroke-linejoin="round"/>
</svg>
